<mxfile host="app.diagrams.net" modified="2024-03-29T03:30:04.293Z" agent="Mozilla/5.0 (Macintosh; Intel Mac OS X 10_15_7) AppleWebKit/537.36 (KHTML, like Gecko) Chrome/123.0.0.0 Safari/537.36" etag="f2V9VUk4SC3cabsiyqp5" version="24.2.0" type="github">
  <diagram name="Page-1" id="WfaMz615tzQlH5GkM4Tm">
    <mxGraphModel dx="1194" dy="756" grid="1" gridSize="10" guides="1" tooltips="1" connect="1" arrows="1" fold="1" page="1" pageScale="1" pageWidth="850" pageHeight="1100" math="0" shadow="0">
      <root>
        <mxCell id="0" />
        <mxCell id="1" parent="0" />
        <mxCell id="PGCFIzTZv2ok1Tr4uJvO-4" style="edgeStyle=orthogonalEdgeStyle;rounded=0;orthogonalLoop=1;jettySize=auto;html=1;" edge="1" parent="1" source="PGCFIzTZv2ok1Tr4uJvO-1" target="PGCFIzTZv2ok1Tr4uJvO-3">
          <mxGeometry relative="1" as="geometry" />
        </mxCell>
        <mxCell id="PGCFIzTZv2ok1Tr4uJvO-5" value="上传" style="edgeLabel;html=1;align=center;verticalAlign=middle;resizable=0;points=[];" vertex="1" connectable="0" parent="PGCFIzTZv2ok1Tr4uJvO-4">
          <mxGeometry x="0.1" y="-2" relative="1" as="geometry">
            <mxPoint as="offset" />
          </mxGeometry>
        </mxCell>
        <mxCell id="PGCFIzTZv2ok1Tr4uJvO-1" value="用户" style="shape=umlActor;verticalLabelPosition=bottom;verticalAlign=top;html=1;outlineConnect=0;" vertex="1" parent="1">
          <mxGeometry x="60" y="120" width="30" height="60" as="geometry" />
        </mxCell>
        <mxCell id="PGCFIzTZv2ok1Tr4uJvO-3" value="影像件文件" style="whiteSpace=wrap;html=1;shape=mxgraph.basic.document" vertex="1" parent="1">
          <mxGeometry x="200" y="100" width="100" height="100" as="geometry" />
        </mxCell>
      </root>
    </mxGraphModel>
  </diagram>
</mxfile>
